<svg xmlns="http://www.w3.org/2000/svg" viewBox="0 0 344.94 159.67"><defs><style>.cls-1{fill:#2e3191;}.cls-2{fill:#00adee;}.cls-3{fill:#2e368f;}</style></defs><g id="Layer_2" data-name="Layer 2"><g id="Layer_1-2" data-name="Layer 1"><path class="cls-1" d="M51.05,39.57a5.79,5.79,0,1,1,5.78-5.78A5.79,5.79,0,0,1,51.05,39.57Zm0-7.28a1.5,1.5,0,1,0,1.5,1.5A1.5,1.5,0,0,0,51.05,32.29Z"/><path class="cls-1" d="M51,95a5.79,5.79,0,1,1,5.78-5.78A5.79,5.79,0,0,1,51,95Zm0-7.28a1.5,1.5,0,1,0,1.5,1.5A1.5,1.5,0,0,0,51,87.75Z"/><path class="cls-1" d="M64,67.42a5.79,5.79,0,1,1,5.79-5.78A5.78,5.78,0,0,1,64,67.42Zm0-7.29a1.51,1.51,0,1,0,1.51,1.51A1.51,1.51,0,0,0,64,60.13Z"/><path class="cls-2" d="M70.46,76.64a4.32,4.32,0,1,1,4.32-4.32A4.32,4.32,0,0,1,70.46,76.64Zm0-6.06a1.75,1.75,0,1,0,1.75,1.74A1.74,1.74,0,0,0,70.46,70.58Z"/><path class="cls-2" d="M111.55,74.93a4.31,4.31,0,1,1,4.31-4.31A4.31,4.31,0,0,1,111.55,74.93Zm0-6.05a1.74,1.74,0,1,0,1.74,1.74A1.74,1.74,0,0,0,111.55,68.88Z"/><path class="cls-2" d="M111.67,100.72A4.32,4.32,0,1,1,116,96.4,4.33,4.33,0,0,1,111.67,100.72Zm0-6.06a1.75,1.75,0,1,0,1.74,1.74A1.75,1.75,0,0,0,111.67,94.66Z"/><path class="cls-2" d="M112.1,22.61a4.32,4.32,0,1,1,4.31-4.31A4.32,4.32,0,0,1,112.1,22.61Zm0-6.06a1.75,1.75,0,1,0,1.74,1.75A1.76,1.76,0,0,0,112.1,16.55Z"/><path class="cls-2" d="M104.72,13.13A4.32,4.32,0,1,1,109,8.82,4.31,4.31,0,0,1,104.72,13.13Zm0-6.05a1.74,1.74,0,1,0,1.75,1.74A1.74,1.74,0,0,0,104.72,7.08Z"/><path class="cls-2" d="M68.18,8.75A4.32,4.32,0,1,1,72.5,4.43,4.32,4.32,0,0,1,68.18,8.75Zm0-6.06a1.75,1.75,0,1,0,1.75,1.74A1.74,1.74,0,0,0,68.18,2.69Z"/><path class="cls-2" d="M78.48,8.63a4.32,4.32,0,1,1,4.31-4.32A4.32,4.32,0,0,1,78.48,8.63Zm0-6.06a1.75,1.75,0,1,0,1.74,1.74A1.74,1.74,0,0,0,78.48,2.57Z"/><path class="cls-2" d="M78.7,123.37A4.32,4.32,0,1,1,83,119.06,4.32,4.32,0,0,1,78.7,123.37Zm0-6.06a1.75,1.75,0,1,0,1.74,1.75A1.76,1.76,0,0,0,78.7,117.31Z"/><path class="cls-2" d="M90.06,123.37a4.32,4.32,0,1,1,4.31-4.31A4.32,4.32,0,0,1,90.06,123.37Zm0-6.06a1.75,1.75,0,1,0,1.74,1.75A1.76,1.76,0,0,0,90.06,117.31Z"/><rect class="cls-2" x="100.77" y="50.61" width="2.57" height="21.13" transform="translate(-13.37 90.08) rotate(-45)"/><polygon class="cls-2" points="113.04 93.68 110.47 93.68 110.47 81.41 110.01 80.95 88.35 59.08 90.18 57.27 111.83 79.14 113.04 80.35 113.04 93.68"/><rect class="cls-2" x="103.22" y="11.67" width="2.57" height="31.7"/><polygon class="cls-2" points="113.38 40.84 91.81 19.2 93.63 17.39 110.81 34.62 110.81 20.25 113.38 20.25 113.38 40.84"/><polygon class="cls-2" points="92.81 118.14 90.99 116.32 103.38 103.93 103.44 78.2 106.01 78.2 105.95 104.99 92.81 118.14"/><path class="cls-2" d="M49.81,51.91a4.32,4.32,0,1,1,4.31-4.31A4.31,4.31,0,0,1,49.81,51.91Zm0-6.06a1.75,1.75,0,1,0,1.74,1.75A1.75,1.75,0,0,0,49.81,45.85Z"/><rect class="cls-2" x="47.85" y="32.08" width="32.84" height="2.57" transform="translate(-4.77 55.22) rotate(-45)"/><path class="cls-2" d="M49.9,80a4.32,4.32,0,1,1,4.31-4.31A4.32,4.32,0,0,1,49.9,80Zm0-6.06a1.75,1.75,0,1,0,1.74,1.75A1.75,1.75,0,0,0,49.9,73.9Z"/><rect class="cls-2" x="64.92" y="72.69" width="2.57" height="38.06" transform="translate(-45.47 73.68) rotate(-45)"/><rect class="cls-2" x="75.6" y="104.99" width="31.99" height="2.57" transform="translate(-48.32 95.9) rotate(-45)"/><rect class="cls-2" x="73.31" y="71.06" width="19.76" height="2.57"/><rect class="cls-2" x="88.74" y="3.5" width="2.57" height="24.35" transform="translate(15.25 68.2) rotate(-44.96)"/><rect class="cls-2" x="72.78" y="3.88" width="2.57" height="12.91" transform="translate(14.36 55.36) rotate(-44.96)"/><polygon class="cls-1" points="89.68 66.24 66.9 66.24 66.9 57.03 85.84 57.03 96.69 46.08 96.69 33.49 85.86 22.66 68.85 22.66 56.51 34.9 50.02 28.36 65.06 13.45 89.67 13.45 105.9 29.68 105.9 49.87 89.68 66.24"/><polygon class="cls-1" points="89.76 110 64.97 110 49.87 95.03 56.66 88.19 68.94 100.36 85.77 100.36 96.47 89.66 96.47 77.25 85.75 66.42 66.9 66.42 66.9 56.78 89.77 56.78 106.11 73.28 106.11 93.65 89.76 110"/><path class="cls-2" d="M139.56,70.46h12.78v6.47c2.81-4.64,7.39-7,13.3-7.06,8.8,0,14.56,5.95,14.56,15.21v25H167.49V88.61c0-4.63-2.74-7.5-7-7.5-4.66,0-7.61,3.31-8.13,8v20.94H139.56Z"/><path class="cls-2" d="M189.43,96.92a25.65,25.65,0,0,0,14.12,4.92c2.51,0,4.36-.88,4.36-2.72,0-5.8-20.62-2.79-20.55-16.68,0-8.16,6.95-12.57,16.19-12.57A32.77,32.77,0,0,1,220,74.35l-4.36,8.24c-4.8-2.58-9.23-4-12.56-4-2.29,0-3.92.88-3.92,2.72,0,5.43,21,2.79,20.92,16.61,0,8.16-7.17,12.64-16.78,12.64A29.52,29.52,0,0,1,185.37,105Z"/><path class="cls-2" d="M233.84,70.46l9.76,26.31,8.64-26.31H265l-17.22,43.73c-2.95,7.2-8,10.73-15.37,10.73a18.13,18.13,0,0,1-11.6-4l5.32-8.67a8.07,8.07,0,0,0,5.25,2.13,5.12,5.12,0,0,0,4.95-3.16l1-2L220.69,70.46Z"/><path class="cls-2" d="M269.16,96.92a25.65,25.65,0,0,0,14.12,4.92c2.51,0,4.36-.88,4.36-2.72,0-5.8-20.62-2.79-20.55-16.68,0-8.16,7-12.57,16.19-12.57a32.77,32.77,0,0,1,16.4,4.48l-4.36,8.24c-4.8-2.58-9.24-4-12.56-4-2.29,0-3.92.88-3.92,2.72,0,5.43,21,2.79,20.91,16.61,0,8.16-7.16,12.64-16.77,12.64A29.52,29.52,0,0,1,265.1,105Z"/><path class="cls-2" d="M120.3,47.74h13.15v62H120.3Z"/><path class="cls-1" d="M1.87,140.43v14.49H0V140.43Z"/><path class="cls-1" d="M4.64,147.33c0-1.07,0-2-.08-2.81H6.23l.11,1.72h0a3.83,3.83,0,0,1,3.44-2c1.44,0,3.68.86,3.68,4.43v6.21H11.61v-6c0-1.67-.63-3.07-2.41-3.07a2.7,2.7,0,0,0-2.54,1.93,2.91,2.91,0,0,0-.13.88v6.26H4.64Z"/><path class="cls-1" d="M15.67,153a4.92,4.92,0,0,0,2.49.76c1.38,0,2-.69,2-1.55s-.53-1.4-1.93-1.91c-1.87-.67-2.75-1.7-2.75-2.95,0-1.68,1.35-3.05,3.59-3.05a5.26,5.26,0,0,1,2.56.64l-.48,1.38a4,4,0,0,0-2.13-.6c-1.11,0-1.74.64-1.74,1.42s.63,1.24,2,1.76c1.81.69,2.73,1.59,2.73,3.14,0,1.82-1.42,3.11-3.89,3.11a5.92,5.92,0,0,1-2.92-.7Z"/><path class="cls-1" d="M25.9,141.59a1.17,1.17,0,0,1-2.34,0,1.15,1.15,0,0,1,1.18-1.18A1.12,1.12,0,0,1,25.9,141.59Zm-2.11,13.33v-10.4h1.9v10.4Z"/><path class="cls-1" d="M37.14,144.52c0,.75-.08,1.59-.08,2.85v6c0,2.39-.47,3.85-1.49,4.76a5.53,5.53,0,0,1-3.78,1.24,6.7,6.7,0,0,1-3.46-.86l.47-1.44a5.9,5.9,0,0,0,3.06.82c1.93,0,3.35-1,3.35-3.63v-1.16h0a3.73,3.73,0,0,1-3.31,1.74c-2.58,0-4.43-2.2-4.43-5.08,0-3.52,2.3-5.52,4.68-5.52a3.46,3.46,0,0,1,3.25,1.8h0l.09-1.56Zm-2,4.1a2.6,2.6,0,0,0-.11-.86,2.73,2.73,0,0,0-2.64-2c-1.81,0-3.1,1.53-3.1,3.94,0,2,1,3.74,3.07,3.74A2.76,2.76,0,0,0,35,151.5a3.53,3.53,0,0,0,.15-1Z"/><path class="cls-1" d="M39.55,139.66h1.89v6.49h.05a3.45,3.45,0,0,1,1.35-1.33,3.8,3.8,0,0,1,1.93-.54c1.4,0,3.64.86,3.64,4.45v6.19H46.52v-6c0-1.67-.63-3.09-2.41-3.09a2.72,2.72,0,0,0-2.54,1.89,2.25,2.25,0,0,0-.13.9v6.28H39.55Z"/><path class="cls-1" d="M53,141.53v3h2.71V146H53v5.61c0,1.29.36,2,1.42,2a4.33,4.33,0,0,0,1.09-.13l.09,1.42a4.71,4.71,0,0,1-1.68.25,2.6,2.6,0,0,1-2-.79,3.84,3.84,0,0,1-.73-2.71V146H49.57v-1.44h1.61V142Z"/><path class="cls-1" d="M57.41,154.92v-9H56v-1.44h1.46V144a4.91,4.91,0,0,1,1.21-3.63,3.6,3.6,0,0,1,2.53-1,4.45,4.45,0,0,1,1.62.3l-.26,1.46A2.85,2.85,0,0,0,61.3,141c-1.61,0-2,1.42-2,3v.56H61.8V146H59.28v9Z"/><path class="cls-1" d="M71.56,152.08c0,1.08,0,2,.08,2.84H70l-.11-1.7h0a3.92,3.92,0,0,1-3.44,1.94c-1.64,0-3.59-.91-3.59-4.56v-6.08h1.89v5.76c0,2,.6,3.31,2.32,3.31a2.69,2.69,0,0,0,2.67-2.69v-6.38h1.89Z"/><path class="cls-1" d="M74.05,139.66h1.89v15.26H74.05Z"/><path class="cls-1" d="M91.29,140.43v14.49H89.42V140.43Z"/><path class="cls-1" d="M94.06,147.33c0-1.07,0-2-.08-2.81h1.68l.1,1.72h0a3.82,3.82,0,0,1,3.44-2c1.44,0,3.67.86,3.67,4.43v6.21H101v-6c0-1.67-.62-3.07-2.41-3.07a2.68,2.68,0,0,0-2.53,1.93,2.63,2.63,0,0,0-.13.88v6.26h-1.9Z"/><path class="cls-1" d="M105.35,147.33c0-1.07,0-2-.09-2.81h1.68l.11,1.72h0a3.83,3.83,0,0,1,3.44-2c1.44,0,3.68.86,3.68,4.43v6.21h-1.9v-6c0-1.67-.62-3.07-2.4-3.07a2.69,2.69,0,0,0-2.54,1.93,2.63,2.63,0,0,0-.13.88v6.26h-1.89Z"/><path class="cls-1" d="M126.05,149.63c0,3.85-2.67,5.53-5.18,5.53-2.82,0-5-2.07-5-5.36,0-3.48,2.28-5.52,5.16-5.52S126.05,146.45,126.05,149.63Zm-8.25.11c0,2.28,1.31,4,3.16,4s3.16-1.7,3.16-4c0-1.77-.89-4-3.12-4S117.8,147.76,117.8,149.74Z"/><path class="cls-1" d="M128.37,144.52l2,5.84a24.5,24.5,0,0,1,.84,2.67h.07c.23-.86.53-1.72.88-2.67l2-5.84h2l-4.09,10.4h-1.8l-4-10.4Z"/><path class="cls-1" d="M143,154.92l-.15-1.31h-.07a3.85,3.85,0,0,1-3.18,1.55,3,3,0,0,1-3.18-3c0-2.52,2.24-3.89,6.26-3.87v-.22a2.14,2.14,0,0,0-2.37-2.4,5.2,5.2,0,0,0-2.71.77l-.43-1.25a6.46,6.46,0,0,1,3.42-.92c3.18,0,4,2.17,4,4.26v3.89a14.54,14.54,0,0,0,.17,2.49Zm-.28-5.31c-2.06,0-4.41.32-4.41,2.34a1.68,1.68,0,0,0,1.79,1.81,2.59,2.59,0,0,0,2.51-1.74,1.86,1.86,0,0,0,.11-.6Z"/><path class="cls-1" d="M149.16,141.53v3h2.71V146h-2.71v5.61c0,1.29.36,2,1.42,2a4.33,4.33,0,0,0,1.09-.13l.09,1.42a4.71,4.71,0,0,1-1.68.25,2.6,2.6,0,0,1-2-.79,3.84,3.84,0,0,1-.73-2.71V146H145.7v-1.44h1.61V142Z"/><path class="cls-1" d="M155.45,141.59a1.11,1.11,0,0,1-1.2,1.16,1.12,1.12,0,0,1-1.14-1.16,1.16,1.16,0,0,1,1.18-1.18A1.12,1.12,0,0,1,155.45,141.59Zm-2.1,13.33v-10.4h1.89v10.4Z"/><path class="cls-1" d="M158.46,144.52l2,5.84a26.74,26.74,0,0,1,.83,2.67h.07c.24-.86.54-1.72.88-2.67l2-5.84h2l-4.09,10.4h-1.8l-4-10.4Z"/><path class="cls-1" d="M168.27,150.06a3.32,3.32,0,0,0,3.56,3.61,6.85,6.85,0,0,0,2.88-.53l.33,1.35a8.49,8.49,0,0,1-3.46.64c-3.21,0-5.12-2.1-5.12-5.24s1.85-5.61,4.88-5.61c3.4,0,4.3,3,4.3,4.9a5.53,5.53,0,0,1-.07.88Zm5.54-1.35c0-1.21-.49-3.08-2.62-3.08-1.91,0-2.75,1.77-2.9,3.08Z"/><path class="cls-1" d="M191.36,140.43v14.49h-1.87V140.43Z"/><path class="cls-1" d="M194.13,147.33c0-1.07,0-2-.09-2.81h1.68l.11,1.72h0a3.83,3.83,0,0,1,3.44-2c1.44,0,3.68.86,3.68,4.43v6.21h-1.9v-6c0-1.67-.62-3.07-2.4-3.07a2.69,2.69,0,0,0-2.54,1.93,2.63,2.63,0,0,0-.13.88v6.26h-1.89Z"/><path class="cls-1" d="M207.61,141.53v3h2.7V146h-2.7v5.61c0,1.29.36,2,1.41,2a4.43,4.43,0,0,0,1.1-.13l.09,1.42a4.71,4.71,0,0,1-1.68.25,2.6,2.6,0,0,1-2-.79,3.84,3.84,0,0,1-.73-2.71V146h-1.61v-1.44h1.61V142Z"/><path class="cls-1" d="M212.72,150.06a3.33,3.33,0,0,0,3.57,3.61,6.89,6.89,0,0,0,2.88-.53l.32,1.35a8.41,8.41,0,0,1-3.46.64c-3.2,0-5.11-2.1-5.11-5.24s1.84-5.61,4.88-5.61c3.39,0,4.3,3,4.3,4.9a7.06,7.06,0,0,1-.07.88Zm5.55-1.35c0-1.21-.5-3.08-2.62-3.08-1.92,0-2.76,1.77-2.91,3.08Z"/><path class="cls-1" d="M221.79,139.66h1.89v15.26h-1.89Z"/><path class="cls-1" d="M226.22,139.66h1.89v15.26h-1.89Z"/><path class="cls-1" d="M232.75,141.59a1.11,1.11,0,0,1-1.2,1.16,1.12,1.12,0,0,1-1.14-1.16,1.16,1.16,0,0,1,1.18-1.18A1.12,1.12,0,0,1,232.75,141.59Zm-2.1,13.33v-10.4h1.89v10.4Z"/><path class="cls-1" d="M244,144.52c-.05.75-.09,1.59-.09,2.85v6c0,2.39-.47,3.85-1.48,4.76a5.54,5.54,0,0,1-3.79,1.24,6.72,6.72,0,0,1-3.46-.86l.48-1.44a5.83,5.83,0,0,0,3.05.82c1.93,0,3.35-1,3.35-3.63v-1.16h0a3.73,3.73,0,0,1-3.31,1.74c-2.58,0-4.43-2.2-4.43-5.08,0-3.52,2.3-5.52,4.69-5.52a3.45,3.45,0,0,1,3.24,1.8h0l.08-1.56Zm-2,4.1a2.6,2.6,0,0,0-.11-.86,2.72,2.72,0,0,0-2.64-2c-1.81,0-3.1,1.53-3.1,3.94,0,2,1,3.74,3.08,3.74a2.76,2.76,0,0,0,2.62-1.94,3.21,3.21,0,0,0,.15-1Z"/><path class="cls-1" d="M247.46,150.06a3.33,3.33,0,0,0,3.57,3.61,6.89,6.89,0,0,0,2.88-.53l.32,1.35a8.49,8.49,0,0,1-3.46.64c-3.21,0-5.12-2.1-5.12-5.24s1.85-5.61,4.88-5.61c3.4,0,4.3,3,4.3,4.9a7.52,7.52,0,0,1-.06.88Zm5.54-1.35c0-1.21-.49-3.08-2.62-3.08-1.91,0-2.75,1.77-2.9,3.08Z"/><path class="cls-1" d="M256.53,147.33c0-1.07,0-2-.09-2.81h1.68l.11,1.72h0a3.83,3.83,0,0,1,3.44-2c1.44,0,3.67.86,3.67,4.43v6.21h-1.89v-6c0-1.67-.62-3.07-2.4-3.07a2.69,2.69,0,0,0-2.54,1.93,2.63,2.63,0,0,0-.13.88v6.26h-1.89Z"/><path class="cls-1" d="M270,141.53v3h2.7V146H270v5.61c0,1.29.36,2,1.41,2a4.43,4.43,0,0,0,1.1-.13l.09,1.42a4.71,4.71,0,0,1-1.68.25,2.6,2.6,0,0,1-2-.79,3.84,3.84,0,0,1-.73-2.71V146h-1.62v-1.44h1.62V142Z"/><path class="cls-1" d="M277.92,152.64a6.55,6.55,0,0,0,3.35,1c1.91,0,3-1,3-2.48s-.77-2.12-2.73-2.88c-2.36-.83-3.83-2.06-3.83-4.1,0-2.26,1.87-3.94,4.69-3.94a6.63,6.63,0,0,1,3.2.71l-.51,1.53a5.76,5.76,0,0,0-2.75-.69c-2,0-2.73,1.18-2.73,2.17,0,1.36.88,2,2.88,2.8,2.45.94,3.69,2.13,3.69,4.25s-1.65,4.17-5.07,4.17a7.47,7.47,0,0,1-3.7-.92Z"/><path class="cls-1" d="M288.58,144.52l2.28,6.14c.23.69.49,1.51.66,2.13h.05c.19-.62.4-1.42.66-2.17l2.07-6.1h2l-2.83,7.41c-1.36,3.57-2.28,5.4-3.57,6.52a5.25,5.25,0,0,1-2.32,1.22l-.48-1.59a5,5,0,0,0,1.66-.92,5.7,5.7,0,0,0,1.59-2.11,1.29,1.29,0,0,0,.15-.45,1.57,1.57,0,0,0-.13-.5l-3.85-9.58Z"/><path class="cls-1" d="M297,153a4.93,4.93,0,0,0,2.5.76c1.37,0,2-.69,2-1.55s-.54-1.4-1.94-1.91c-1.87-.67-2.75-1.7-2.75-2.95,0-1.68,1.35-3.05,3.59-3.05a5.26,5.26,0,0,1,2.56.64l-.47,1.38a4.07,4.07,0,0,0-2.13-.6c-1.12,0-1.74.64-1.74,1.42s.62,1.24,2,1.76c1.81.69,2.73,1.59,2.73,3.14,0,1.82-1.42,3.11-3.89,3.11a5.92,5.92,0,0,1-2.92-.7Z"/><path class="cls-1" d="M307.39,141.53v3h2.7V146h-2.7v5.61c0,1.29.36,2,1.41,2a4.43,4.43,0,0,0,1.1-.13l.09,1.42a4.71,4.71,0,0,1-1.68.25,2.6,2.6,0,0,1-2-.79,3.84,3.84,0,0,1-.73-2.71V146h-1.62v-1.44h1.62V142Z"/><path class="cls-1" d="M312.5,150.06a3.33,3.33,0,0,0,3.57,3.61,6.89,6.89,0,0,0,2.88-.53l.32,1.35a8.41,8.41,0,0,1-3.46.64c-3.2,0-5.11-2.1-5.11-5.24s1.84-5.61,4.88-5.61c3.39,0,4.29,3,4.29,4.9a7.52,7.52,0,0,1-.06.88Zm5.55-1.35c0-1.21-.5-3.08-2.63-3.08-1.91,0-2.75,1.77-2.9,3.08Z"/><path class="cls-1" d="M321.57,147.33c0-1.07,0-2-.08-2.81h1.65l.09,1.67h.06a3.59,3.59,0,0,1,3.27-1.91,3.07,3.07,0,0,1,2.94,2.08h.05a4.21,4.21,0,0,1,1.16-1.35,3.56,3.56,0,0,1,2.3-.73c1.37,0,3.42.9,3.42,4.51v6.13h-1.85V149c0-2-.73-3.2-2.26-3.2a2.46,2.46,0,0,0-2.24,1.72,3.25,3.25,0,0,0-.15.94v6.43h-1.84v-6.23c0-1.66-.74-2.86-2.18-2.86a2.58,2.58,0,0,0-2.34,1.89,2.54,2.54,0,0,0-.15.92v6.28h-1.85Z"/><path class="cls-1" d="M338.6,153a4.89,4.89,0,0,0,2.49.76c1.38,0,2-.69,2-1.55s-.54-1.4-1.93-1.91c-1.87-.67-2.76-1.7-2.76-2.95,0-1.68,1.36-3.05,3.59-3.05a5.23,5.23,0,0,1,2.56.64l-.47,1.38a4,4,0,0,0-2.13-.6c-1.12,0-1.74.64-1.74,1.42s.62,1.24,2,1.76c1.8.69,2.73,1.59,2.73,3.14,0,1.82-1.42,3.11-3.89,3.11a6,6,0,0,1-2.93-.7Z"/><path class="cls-3" d="M83,144.21a24.66,24.66,0,0,0,1.47,2.16c.6.8,1.09,1.42,1.49,1.86a21.49,21.49,0,0,0-1.55,1.93,20,20,0,0,0-1.4,2.09c-.19-.34-.57-.92-1.14-1.72-.4-.55-1-1.32-1.8-2.3.43-.5,1-1.2,1.67-2.11A18.34,18.34,0,0,0,83,144.21Z"/><path class="cls-3" d="M182,144.21a24.66,24.66,0,0,0,1.47,2.16c.59.8,1.09,1.42,1.48,1.86-.31.33-.83,1-1.55,1.93a21.45,21.45,0,0,0-1.39,2.09,19.85,19.85,0,0,0-1.15-1.72c-.39-.55-1-1.32-1.79-2.3.43-.5,1-1.2,1.67-2.11A18.34,18.34,0,0,0,182,144.21Z"/></g></g></svg>