<?xml version="1.0" encoding="UTF-8"?>
<!DOCTYPE svg PUBLIC "-//W3C//DTD SVG 1.1//EN" "http://www.w3.org/Graphics/SVG/1.1/DTD/svg11.dtd">
<!-- Creator: CorelDRAW 2020 (64-Bit Evaluation Version) -->
<svg xmlns="http://www.w3.org/2000/svg" xml:space="preserve" width="172.946mm" height="43.1316mm" version="1.1" style="shape-rendering:geometricPrecision; text-rendering:geometricPrecision; image-rendering:optimizeQuality; fill-rule:evenodd; clip-rule:evenodd"
viewBox="0 0 17294.6 4313.16"
 xmlns:xlink="http://www.w3.org/1999/xlink"
 xmlns:xodm="http://www.corel.com/coreldraw/odm/2003">
 <defs>
  <style type="text/css">
   <![CDATA[
    .fil0 {fill:#3B70E8}
    .fil1 {fill:white}
    .fil7 {fill:#2E70E8;fill-rule:nonzero}
    .fil6 {fill:#343C51;fill-rule:nonzero}
    .fil4 {fill:#3B2E85;fill-rule:nonzero}
    .fil3 {fill:#3B70E8;fill-rule:nonzero}
    .fil2 {fill:#60E4FF;fill-rule:nonzero}
    .fil5 {fill:white;fill-rule:nonzero}
   ]]>
  </style>
 </defs>
 <g id="Layer_x0020_1">
  <metadata id="CorelCorpID_0Corel-Layer"/>
  <g id="_1868963785936">
   <g>
    <path class="fil0" d="M3644.79 1295.21c53.67,97.28 157.67,154.31 265.02,150.96l0 0c13.42,33.55 26.84,67.09 36.9,100.64 335.46,992.96 -194.57,2066.44 -1187.54,2405.26 -724.59,248.24 -1529.7,30.19 -2036.25,-546.81 -53.67,73.8 -127.48,127.48 -214.7,154.31 774.92,905.75 2136.89,1013.1 3042.64,238.18 680.99,-580.35 929.23,-1519.65 634.03,-2358.3 -10.06,-33.55 -26.84,-73.8 -40.26,-107.35l0 0c100.64,-130.83 77.16,-322.04 -53.67,-422.68 -130.83,-100.64 -322.04,-77.16 -422.68,53.67 -73.81,93.95 -83.87,224.78 -23.49,332.12l0 0z"/>
    <path class="fil0" d="M659.18 3019.49c80.51,144.25 33.55,332.11 -114.06,412.62 -147.61,80.51 -332.11,33.55 -412.62,-114.06 -60.38,-107.35 -53.67,-238.18 23.48,-335.46l0 0c-13.42,-33.55 -30.19,-70.45 -40.26,-107.35 -392.49,-1123.79 197.92,-2354.94 1325.08,-2750.79 838.65,-295.21 1774.59,-43.61 2354.94,634.03 -87.22,26.84 -161.02,77.16 -214.7,150.96 -691.05,-788.34 -1888.65,-865.5 -2676.99,-174.44 -576.98,506.54 -791.68,1308.3 -546.79,2036.24 10.06,33.55 23.48,67.09 36.9,100.64l0 0c107.35,-6.71 211.35,50.32 265.02,147.61z"/>
    <path class="fil1" d="M397.52 3019.49c83.87,0 154.31,70.45 154.31,154.31 0,83.87 -70.45,154.31 -154.31,154.31 -83.86,0 -154.31,-70.45 -154.31,-154.31l0 0c-3.36,-87.22 70.44,-154.31 154.31,-154.31z"/>
    <path class="fil1" d="M3906.45 1295.21c-83.87,0 -154.31,-70.45 -154.31,-154.31 0,-87.22 70.45,-154.31 154.31,-154.31 83.87,0 154.31,70.45 154.31,154.31l0 0c0.01,87.22 -67.09,154.31 -154.31,154.31z"/>
    <path class="fil2" d="M394.16 3529.39c-197.92,0 -358.95,-161.02 -358.95,-358.95 0,-197.92 161.02,-358.95 358.95,-358.95 197.92,0 358.95,161.02 358.95,358.95 3.35,197.93 -161.02,358.95 -358.95,358.95zm0 -493.13c-77.16,0 -137.54,60.38 -137.54,137.54 0,77.16 60.38,137.54 137.54,137.54 77.16,0 137.54,-60.38 137.54,-137.54 0,-77.16 -60.38,-137.54 -137.54,-137.54z"/>
    <path class="fil2" d="M3906.45 1499.85c-197.92,0 -358.95,-161.02 -358.95,-358.95 0,-197.93 161.02,-358.95 358.95,-358.95 197.92,0 358.95,161.02 358.95,358.95 0,197.93 -161.02,358.95 -358.95,358.95zm0 -493.13c-77.16,0 -137.54,60.38 -137.54,137.54 0,77.16 60.38,137.54 137.54,137.54 77.16,0 137.54,-60.38 137.54,-137.54 0,-77.16 -60.38,-137.54 -137.54,-137.54z"/>
    <path class="fil3" d="M3165.08 2096.97l10.06 -1090.26 -1033.21 -154.31 -1013.1 157.67 0 1133.87c0,442.8 228.12,858.78 600.48,1096.95l422.67 271.73 419.33 -271.73c372.36,-241.53 593.77,-654.15 593.77,-1096.95l0 0 0 -46.97 0 0z"/>
    <path class="fil4" d="M2232.49 1610.55l-251.58 0c-46.96,0 -87.22,-36.9 -87.22,-87.22 0,-46.96 36.9,-87.22 87.22,-87.22l251.58 0c46.96,0 87.22,36.9 87.22,87.22 0,50.32 -36.9,87.22 -87.22,87.22z"/>
    <path class="fil2" d="M2162.05 1855.44l-476.35 0c-46.96,0 -87.22,-36.9 -87.22,-87.22 0,-50.32 36.9,-87.22 87.22,-87.22l476.35 0c46.96,0 87.22,36.9 87.22,87.22 0,50.32 -40.26,87.22 -87.22,87.22z"/>
    <path class="fil5" d="M2504.22 1855.44l-77.16 0c-46.96,0 -87.22,-36.9 -87.22,-87.22 0,-50.32 36.9,-87.22 87.22,-87.22l77.16 0c46.96,0 87.22,36.9 87.22,87.22 0,50.32 -43.61,87.22 -87.22,87.22z"/>
    <path class="fil5" d="M1558.22 2143.94l-73.8 0c-46.96,0 -87.22,-36.9 -87.22,-87.22 0,-50.32 36.9,-87.22 87.22,-87.22l73.8 0c46.96,0 87.22,36.9 87.22,87.22 0,50.32 -36.9,87.22 -87.22,87.22z"/>
    <path class="fil2" d="M1789.69 2435.78l-144.25 0c-46.96,0 -87.22,-36.9 -87.22,-87.22 0,-46.96 36.9,-87.22 87.22,-87.22l144.25 0c46.96,0 87.22,36.9 87.22,87.22 -3.35,46.96 -43.61,87.22 -87.22,87.22z"/>
    <path class="fil4" d="M2235.85 2727.63l-248.24 0c-46.96,0 -87.22,-36.9 -87.22,-87.22 0,-46.96 36.9,-87.22 87.22,-87.22l248.24 0c46.96,0 87.22,36.9 87.22,87.22 0,50.32 -36.9,87.22 -87.22,87.22z"/>
    <path class="fil4" d="M2121.8 2143.94l-285.14 0c-46.96,0 -87.22,-36.9 -87.22,-87.22 0,-50.32 36.9,-87.22 87.22,-87.22l285.14 0c46.95,0 87.21,36.9 87.21,87.22 0,50.32 -40.26,87.22 -87.21,87.22z"/>
    <path class="fil2" d="M2816.2 2143.94l-281.79 0c-46.96,0 -87.22,-36.9 -87.22,-87.22 0,-50.32 36.9,-87.22 87.22,-87.22l281.79 0c46.96,0 87.22,36.9 87.22,87.22 0,50.32 -40.26,87.22 -87.22,87.22z"/>
    <path class="fil5" d="M2641.76 2435.78l-566.93 0c-46.96,0 -87.22,-36.9 -87.22,-87.22 0,-46.96 36.9,-87.22 87.22,-87.22l566.93 0c46.96,0 87.22,36.9 87.22,87.22 0,50.32 -36.9,87.22 -87.22,87.22z"/>
   </g>
   <g>
    <g>
     <g>
      <g>
       <path class="fil6" d="M5219.05 1882.28l332.1 -546.81c-60.38,-23.48 -110.69,-53.67 -154.3,-93.93 -43.61,-40.26 -77.16,-90.58 -103.99,-147.6 -23.48,-57.03 -36.9,-124.12 -36.9,-197.92l0 -281.79 261.64 -0.01 0 298.56c0,36.9 6.71,73.8 23.48,103.99 16.77,33.55 36.9,57.03 67.09,80.51 30.19,23.48 63.74,33.55 100.64,36.9l308.63 -516.61 291.86 0.01 -332.11 536.74c67.09,16.77 127.48,46.96 177.8,87.22 50.32,40.26 90.58,93.93 117.41,154.31 26.84,60.38 40.26,130.83 40.26,211.34l0 278.43 -261.67 0.01 0 -298.56c0,-63.74 -20.13,-117.41 -60.38,-157.67 -40.26,-43.61 -97.28,-63.74 -174.44,-63.74l-308.63 519.97 -288.49 -3.35 0 0 0 0z"/>
       <path class="fil6" d="M6513.93 1882.28l0 -228.12 543.45 0c26.84,0 50.32,-6.71 73.8,-20.13 23.48,-13.42 40.26,-30.19 53.67,-53.67 13.41,-23.48 20.13,-46.96 20.13,-73.8 0,-26.84 -6.71,-53.67 -20.13,-73.8 -13.42,-23.48 -30.19,-40.26 -53.67,-53.67 -23.48,-13.42 -46.96,-20.13 -73.8,-20.13l-211.34 -0.01c-70.45,0 -137.54,-13.42 -194.57,-43.61 -57.03,-30.19 -103.99,-70.45 -137.54,-127.48 -33.55,-57.03 -50.32,-120.77 -50.32,-197.92 0,-77.16 16.77,-144.25 50.32,-197.92 33.55,-57.03 77.16,-100.64 134.19,-130.83 57.03,-30.19 117.41,-46.96 184.5,-46.96l550.16 -0.01 0 228.12 -523.32 0c-23.48,0 -46.96,6.71 -67.09,20.13 -20.13,13.42 -36.9,30.19 -46.96,50.32 -10.06,20.13 -16.77,43.61 -16.77,70.45 0,26.84 6.71,46.96 16.77,70.45 10.06,20.13 26.84,36.9 46.96,50.32 20.13,13.42 43.61,16.77 67.09,16.77l221.4 -0.01c77.16,0 147.6,16.77 204.63,46.96 57.03,30.19 103.99,73.8 134.19,127.48 33.55,53.67 46.96,117.41 46.96,191.21 0,87.22 -16.77,161.02 -50.32,221.41 -33.55,60.38 -77.16,107.35 -134.19,137.54 -57.03,30.19 -117.41,46.96 -187.86,46.96l-580.34 0.01 0 -10.06 0 0z"/>
       <path class="fil6" d="M7627.67 1882.28l0 -784.99c0,-103.99 20.13,-194.57 63.74,-268.37 43.61,-77.16 100.64,-134.19 177.8,-174.44 77.16,-40.25 161.02,-60.38 261.66,-60.38 50.32,0 100.64,6.71 144.25,20.13 43.61,13.42 87.22,33.55 124.12,57.03 36.9,23.48 70.45,53.67 100.64,90.58 30.19,-36.9 63.74,-67.09 100.64,-90.58 36.9,-23.49 80.51,-43.61 124.12,-57.03 43.61,-13.42 93.93,-20.13 144.25,-20.13 97.28,0 184.5,20.13 261.66,60.38 73.8,40.26 134.19,97.28 177.8,174.44 43.61,77.16 63.74,164.38 63.74,268.37l0 784.98 -261.68 0.01 0 -801.76c0,-46.96 -10.06,-90.58 -30.19,-130.83 -20.13,-40.26 -46.96,-70.45 -83.87,-93.93 -36.91,-23.48 -80.51,-36.9 -127.48,-36.9 -46.97,0 -93.93,13.42 -127.48,36.9 -33.55,23.48 -63.74,53.67 -83.87,93.93 -20.13,40.26 -30.19,83.87 -30.19,130.83l0 801.76 -254.94 0 0 -801.76c0,-46.96 -10.06,-90.58 -30.19,-130.83 -20.13,-40.26 -46.96,-70.45 -83.87,-93.93 -36.91,-23.48 -80.51,-36.9 -127.48,-36.9 -46.97,0 -93.93,13.42 -127.48,36.9 -33.55,23.48 -63.74,53.67 -83.87,93.93 -20.13,40.26 -30.19,83.87 -30.19,130.83l0 801.76c0.02,0 -261.64,0 -261.64,0z"/>
      </g>
     </g>
     <g>
      <path class="fil6" d="M9915.52 520.29c36.9,0 70.45,3.35 103.99,13.42 33.54,10.07 63.74,23.48 90.58,40.26 26.84,16.77 53.67,36.9 77.16,60.38 23.48,23.48 43.61,50.32 60.38,77.16 16.77,30.19 30.19,60.38 40.26,93.93 10.06,33.55 13.42,67.09 13.42,103.99 0,33.55 -3.35,70.45 -13.42,100.64 -10.06,33.55 -23.48,63.74 -40.26,90.58 -16.77,26.84 -36.9,53.67 -60.38,77.16 -23.48,23.48 -50.32,43.61 -77.16,60.38 -26.84,16.77 -60.38,30.19 -90.58,40.26 -33.55,10.06 -67.09,13.42 -103.99,13.42 -36.9,0 -70.45,-3.35 -103.99,-13.42 -33.53,-10.07 -63.73,-23.48 -90.57,-40.26 -26.84,-16.77 -53.67,-36.9 -77.16,-60.38 -23.48,-23.48 -43.61,-50.32 -60.38,-77.16 -16.77,-26.84 -30.19,-60.38 -40.26,-90.58 -10.06,-33.55 -13.42,-67.09 -13.42,-100.64 0,-33.55 3.35,-70.45 13.42,-103.99 10.07,-33.54 23.48,-63.74 40.26,-93.93 16.78,-30.19 36.9,-53.67 60.38,-77.16 23.48,-23.48 50.32,-43.61 77.16,-60.38 26.84,-16.77 60.38,-30.19 90.57,-40.26 33.54,-10.06 70.44,-13.42 103.99,-13.42zm0 721.25c30.19,0 60.38,-3.35 90.58,-13.42 30.19,-6.71 57.03,-20.13 80.51,-33.55 23.48,-13.42 46.96,-33.55 67.09,-53.67 20.13,-20.12 36.9,-43.61 50.32,-67.09 13.42,-26.84 26.84,-53.67 33.55,-80.51 6.71,-30.19 13.42,-60.38 13.42,-90.58 0,-46.96 -10.06,-90.58 -26.84,-134.19 -16.78,-43.61 -40.26,-77.16 -70.45,-107.35 -30.19,-30.19 -67.09,-53.67 -107.35,-73.8 -40.26,-16.77 -83.87,-26.84 -130.83,-26.84 -30.19,0 -60.38,3.35 -90.58,13.42 -30.19,10.06 -53.66,20.13 -80.5,33.55 -26.84,13.42 -46.96,33.55 -67.09,53.67 -20.13,20.12 -36.9,43.61 -50.32,70.45 -13.42,23.48 -26.84,53.67 -33.55,80.51 -6.71,26.84 -10.06,60.38 -10.06,90.58 0,30.2 3.35,60.38 10.06,90.58 6.71,30.19 20.13,57.03 33.55,80.51 13.42,23.48 30.19,46.96 50.32,67.09 20.13,20.13 43.61,36.9 67.09,53.67 23.48,13.42 50.31,26.84 80.5,33.55 30.19,6.71 60.38,13.42 90.58,13.42zm-6.71 -570.29c60.38,0 107.35,10.06 134.19,33.55 30.19,23.48 43.61,53.67 43.61,97.28 0,33.55 -10.06,60.38 -26.84,83.87 -20.13,23.48 -46.96,40.26 -83.87,46.96 6.71,3.35 10.06,10.06 16.77,13.42 6.71,3.36 10.06,10.06 13.42,16.77l120.77 177.8 -77.16 0c-10.06,0 -20.13,-3.35 -26.84,-13.42l-107.35 -157.67c-3.35,-3.35 -6.71,-6.71 -10.06,-10.06 -3.35,-3.35 -10.06,-3.35 -20.13,-3.35l-43.61 0 0 187.86 -83.85 0 0 -469.65 150.95 -3.36 0 0zm-6.71 221.41c40.26,0 67.09,-6.71 83.87,-20.13 16.77,-13.42 23.48,-33.55 23.48,-60.38 0,-13.42 0,-23.48 -3.35,-33.55 -3.35,-10.07 -10.06,-16.77 -16.77,-23.48 -6.71,-6.71 -16.77,-10.06 -30.19,-13.42 -13.42,-3.35 -26.84,-3.35 -46.96,-3.35l-70.47 0 0 154.31 60.39 0z"/>
     </g>
    </g>
    <g>
     <g>
      <g>
       <path class="fil7" d="M5544.44 3576.35c-57.03,0 -110.69,-13.42 -157.66,-30.19 -46.96,-20.13 -87.22,-46.96 -120.77,-80.51 -33.55,-33.55 -60.38,-73.8 -77.16,-117.41 -16.78,-43.61 -26.84,-93.93 -26.84,-144.25 0,-50.32 10.06,-100.64 26.84,-144.25 16.78,-43.61 43.61,-83.87 77.16,-117.41 33.55,-33.54 73.8,-60.38 120.77,-80.51 46.96,-20.13 100.63,-30.19 157.66,-30.19l117.41 0 0 134.19 -114.06 -0.01c-33.55,0 -67.08,6.71 -93.92,20.13 -26.84,13.42 -53.67,30.19 -73.8,50.32 -20.13,20.13 -36.9,46.96 -50.32,77.16 -10.06,30.19 -16.77,60.38 -16.77,93.93 0,33.55 6.71,67.09 16.77,93.93 10.06,30.19 26.84,53.67 50.32,77.16 20.13,20.13 46.96,36.9 73.8,50.32 26.84,13.42 60.37,20.13 93.92,20.13l114.06 -0.01 0 134.19 -117.41 -0.01 0 -6.71z"/>
       <path class="fil7" d="M5765.84 3576.35l0 -392.49c0,-46.96 13.42,-87.22 40.26,-114.06 26.84,-26.84 67.09,-40.26 114.06,-40.26l150.96 0.01 0 124.12 -124.12 0c-10.06,0 -16.77,3.35 -23.48,10.06 -6.71,6.71 -10.06,13.42 -10.06,23.48l0 385.78 -147.62 3.36 0 0z"/>
       <path class="fil7" d="M6413.29 3589.77c-57.03,0 -107.35,-13.42 -150.96,-36.9 -43.61,-26.84 -80.51,-60.38 -103.99,-103.99 -26.84,-43.61 -40.26,-90.58 -40.26,-144.25 0,-53.67 13.42,-100.64 40.26,-144.25 26.84,-43.61 60.38,-77.16 103.99,-103.99 43.61,-26.84 93.93,-36.9 150.96,-36.9 57.03,0 107.35,13.42 150.96,36.9 43.61,26.84 80.51,60.38 103.99,103.99 26.84,43.61 40.26,90.58 40.26,144.25 0,53.67 -13.42,100.64 -40.26,144.25 -26.84,43.61 -60.38,77.16 -103.99,103.99 -43.61,23.48 -93.93,36.9 -150.96,36.9zm0 -124.12c30.19,0 57.03,-6.71 77.16,-20.13 20.13,-13.42 40.26,-33.55 50.32,-57.03 13.42,-23.48 16.77,-50.32 16.77,-80.51 0,-30.19 -6.71,-57.03 -16.77,-80.51 -13.42,-23.48 -30.19,-43.61 -50.32,-57.03 -23.48,-13.42 -46.96,-20.13 -77.16,-20.13 -30.2,0 -57.03,6.71 -77.16,20.13 -23.48,13.42 -40.26,33.55 -50.32,57.03 -10.06,23.48 -16.77,50.32 -16.77,80.51 0,30.19 6.71,57.03 16.77,80.51 10.06,23.48 30.19,43.61 50.32,57.03 20.13,13.42 46.97,20.13 77.16,20.13z"/>
       <path class="fil7" d="M6815.84 3576.35l0 -124.12 268.38 0c10.06,0 16.77,-3.35 23.48,-6.71 6.71,-3.35 13.42,-10.06 16.77,-13.42 3.35,-6.71 6.71,-13.42 6.71,-20.13 0,-10.06 -3.35,-16.77 -6.71,-23.48 -3.35,-6.71 -10.06,-10.06 -16.77,-16.77 -6.71,-3.35 -13.42,-6.71 -23.48,-6.71l-104 0c-33.55,0 -67.09,-6.71 -93.93,-16.77 -26.84,-10.06 -50.32,-30.19 -67.09,-53.67 -16.77,-23.48 -26.84,-57.03 -26.84,-97.28 0,-30.19 6.71,-60.38 23.48,-83.87 16.77,-26.84 36.9,-46.96 63.74,-60.38 26.84,-16.77 53.67,-23.48 87.22,-23.48l254.96 -0.01 0 124.12 -241.54 0c-10.06,0 -20.13,3.35 -26.84,10.06 -6.71,6.71 -13.42,16.77 -13.42,26.84 0,10.07 3.35,20.13 13.42,26.84 6.71,6.71 16.77,10.06 30.19,10.06l104 0c40.26,0 73.8,6.71 100.64,16.77 30.19,13.42 50.32,30.19 67.09,53.67 16.77,23.48 23.48,57.03 23.48,97.28 0,30.19 -6.71,60.38 -23.48,87.22 -16.77,26.84 -36.9,46.96 -63.74,63.74 -26.84,16.77 -57.03,23.48 -90.58,23.48l-285.14 0.02 0 6.7z"/>
       <path class="fil7" d="M7389.49 3576.35l0 -124.12 268.37 0c10.06,0 16.77,-3.35 23.48,-6.71 6.71,-3.35 13.42,-10.06 16.77,-13.42 3.35,-6.71 6.71,-13.42 6.71,-20.13 0,-10.06 -3.35,-16.77 -6.71,-23.48 -3.36,-6.71 -10.06,-10.06 -16.77,-16.77 -6.71,-3.35 -13.42,-6.71 -23.48,-6.71l-104 0c-33.55,0 -67.09,-6.71 -93.93,-16.77 -26.84,-10.06 -50.32,-30.19 -67.09,-53.67 -16.77,-23.48 -26.84,-57.03 -26.84,-97.28 0,-30.19 6.71,-60.38 23.48,-83.87 16.77,-23.49 36.9,-46.96 63.74,-60.38 26.84,-16.77 53.67,-23.48 87.22,-23.48l254.96 -0.01 0 124.12 -244.89 0c-10.06,0 -20.13,3.35 -26.84,10.06 -6.71,6.71 -13.42,16.77 -13.42,26.84 0,10.07 3.35,20.13 13.42,26.84 6.71,6.71 16.77,10.06 30.19,10.06l104 0c40.26,0 73.8,6.71 100.64,16.77 30.19,13.42 50.32,30.19 67.09,53.67 16.77,23.48 23.48,57.03 23.48,97.28 0,30.19 -6.71,60.38 -23.48,87.22 -16.77,26.84 -36.9,46.96 -63.74,63.74 -26.84,16.78 -57.03,23.48 -90.58,23.48l-281.78 0.02 0 6.7z"/>
      </g>
     </g>
     <g>
      <path class="fil6" d="M8251.63 3576.35l0 -67.09 328.75 0c30.19,0 53.67,-6.71 77.16,-20.13 20.13,-13.42 36.9,-30.19 46.96,-53.67 10.06,-20.13 16.77,-43.61 16.77,-67.09 0,-23.48 -6.71,-46.96 -16.77,-67.09 -10.06,-20.13 -26.84,-36.9 -46.96,-50.32 -20.12,-13.42 -43.61,-20.13 -73.8,-20.13l-154.32 0c-43.61,0 -80.51,-10.06 -110.7,-26.84 -30.19,-16.77 -53.67,-40.26 -70.45,-70.45 -16.77,-30.19 -26.84,-63.74 -26.84,-100.64 0,-36.9 10.06,-70.45 26.84,-103.99 16.77,-30.19 40.26,-57.03 70.45,-73.8 30.19,-20.13 67.09,-26.84 110.7,-26.84l315.34 0 0 67.09 -308.63 0c-26.84,0 -53.67,6.71 -73.8,20.13 -20.13,13.42 -36.9,30.19 -46.96,50.32 -10.06,20.13 -16.77,40.26 -16.77,63.74 0,23.48 6.71,43.61 16.77,63.74 10.06,20.13 26.84,36.9 43.61,50.32 16.77,13.42 43.61,20.13 73.8,20.13l150.96 0c43.61,0 83.87,10.06 114.06,26.84 30.19,16.77 53.67,43.61 70.45,73.8 16.78,30.19 23.48,63.74 23.48,100.64 0,40.26 -10.06,77.16 -26.84,110.7 -16.78,33.54 -40.26,60.38 -70.45,77.16 -30.19,16.78 -67.09,30.19 -110.7,30.19l-335.47 -0.01 0 -6.71 3.36 0z"/>
      <path class="fil6" d="M9197.63 3576.35c-57.03,0 -110.7,-10.06 -157.67,-33.55 -46.96,-23.48 -83.87,-53.67 -110.7,-93.93 -26.83,-40.26 -40.26,-90.58 -40.26,-147.6 0,-53.67 10.06,-100.64 33.55,-144.25 20.13,-43.61 50.32,-77.16 90.58,-103.99 40.26,-26.84 83.87,-40.26 137.54,-40.26 53.67,0 100.64,13.42 137.54,36.9 36.9,23.48 67.09,57.03 83.87,93.93 20.13,40.26 30.19,83.87 30.19,134.19 0,6.71 0,13.42 0,23.48 0,10.06 -3.35,16.77 -3.35,23.48l-422.69 0.01c3.35,40.26 13.42,73.8 33.55,100.64 20.13,26.84 46.96,46.96 80.51,60.38 33.55,13.42 70.45,20.13 107.35,20.13l137.53 0 0 67.09 -137.54 3.35 0 0zm-224.76 -298.56l352.24 0c0,-13.42 0,-30.19 -3.35,-46.96 -3.35,-16.77 -6.71,-33.55 -16.77,-53.67 -10.06,-20.12 -16.77,-33.55 -30.19,-46.96 -13.42,-13.41 -30.19,-26.84 -50.32,-33.55 -20.13,-6.71 -43.61,-13.42 -73.8,-13.42 -26.84,0 -50.32,6.71 -73.8,16.77 -23.48,10.06 -40.26,26.84 -57.03,46.96 -13.42,20.13 -26.84,40.26 -33.55,63.74 -6.72,20.13 -10.07,43.61 -13.43,67.09z"/>
      <path class="fil6" d="M9801.46 3576.35c-57.02,0 -107.34,-13.42 -150.95,-36.9 -43.61,-23.48 -80.51,-57.03 -103.99,-97.28 -26.84,-40.26 -40.26,-87.22 -40.26,-137.54 0,-50.32 13.42,-97.28 40.26,-137.54 26.84,-40.26 60.38,-73.8 103.99,-97.28 43.61,-23.48 93.93,-36.9 150.95,-36.9l63.74 -0.01 0 67.09 -67.1 0.01c-40.25,0 -73.79,10.06 -107.34,26.84 -33.55,16.78 -57.03,43.61 -77.16,73.8 -20.13,30.19 -30.19,67.09 -30.19,107.35 0,40.26 10.06,73.8 30.19,107.35 20.13,30.19 43.61,57.03 77.16,73.8 33.55,16.77 67.09,26.84 107.34,26.84l67.1 -0.01 0 67.09 -63.74 0 0 -6.71z"/>
      <path class="fil6" d="M10227.5 3589.77c-46.96,0 -87.22,-10.06 -124.12,-30.19 -36.9,-20.13 -67.09,-46.96 -90.58,-83.87 -23.49,-36.91 -33.55,-80.51 -33.55,-127.48l0 -318.69 73.81 0.01 0 315.34c0,36.9 6.71,70.45 26.84,97.28 16.77,26.84 36.9,46.96 63.74,60.38 26.84,13.42 53.67,20.13 83.87,20.13 30.2,0 60.38,-6.71 87.22,-20.13 26.84,-13.42 46.96,-33.55 63.74,-60.38 16.78,-26.83 23.48,-60.38 23.48,-97.28l0 -315.34 73.79 0 0 318.69c0,50.32 -10.06,90.58 -33.55,127.48 -23.49,36.9 -53.67,63.74 -90.58,83.87 -33.54,20.12 -77.15,30.18 -124.11,30.18z"/>
      <path class="fil6" d="M10640.12 3576.35l0 -392.49c0,-46.96 13.42,-87.22 40.26,-114.06 26.84,-26.84 67.09,-40.26 114.06,-40.26l93.92 0.01 0 67.09 -80.51 0c-30.19,0 -53.67,10.06 -70.45,26.84 -16.77,16.77 -23.48,40.26 -23.48,73.8l0 382.43 -73.8 -3.36 0 0z"/>
      <path class="fil6" d="M11022.54 2932.27c-13.42,0 -26.84,-6.71 -36.9,-16.77 -10.06,-10.06 -16.77,-23.48 -16.77,-36.9 0,-13.42 6.71,-26.84 16.77,-36.9 10.06,-10.06 23.48,-16.77 36.9,-16.77 13.42,0 26.84,6.71 36.9,16.77 10.06,10.06 16.77,23.48 16.77,36.9 0,13.42 -6.71,26.84 -16.77,36.9 -10.06,13.41 -23.48,16.77 -36.9,16.77zm-36.9 644.08l0 -543.45 73.81 0 0 543.45 -73.81 0z"/>
      <path class="fil6" d="M11160.08 3096.64l0 -67.09 372.37 0 0 67.09 -372.37 0zm251.6 479.71c-46.96,0 -87.22,-13.42 -114.06,-40.26 -26.84,-26.84 -40.26,-67.09 -40.26,-114.06l0 -526.68 73.81 0.01 0 516.61c0,30.19 6.71,57.03 23.48,73.8 16.77,16.77 40.26,26.84 70.45,26.84l103.99 0.01 0 67.09 -117.41 -3.36 0 0z"/>
     </g>
     <g>
      <path class="fil6" d="M11693.47 3734.02c46.96,0 80.51,-40.26 100.64,-87.22l33.55 -73.8 -191.21 -446.17c-10.06,-20.13 -16.77,-23.48 -36.9,-23.48l-10.07 0 0 -63.74 33.54 0c46.96,0 63.74,10.06 83.87,60.38l137.54 335.46c10.06,26.84 20.13,57.03 20.13,57.03l3.35 0.01c0,0 6.71,-30.19 16.77,-57.03l134.19 -335.46c16.77,-46.96 33.55,-60.38 83.87,-60.38l33.54 -0.01 0 63.74 -10.06 0c-20.13,0 -30.19,6.71 -36.9,23.48l-231.47 560.22c-26.84,67.09 -83.87,114.06 -154.31,114.06 -73.8,0 -117.41,-53.67 -117.41,-53.67l33.55 -53.67c-3.37,3.35 26.83,40.25 73.79,40.25z"/>
     </g>
     <g>
      <path class="fil6" d="M12508.65 3576.35l0 -476.35c0,-60.38 13.42,-110.7 36.9,-154.31 23.48,-43.61 57.03,-73.8 100.64,-97.28 43.61,-23.48 90.58,-33.55 144.25,-33.55 33.55,0 67.09,6.71 100.64,16.77 33.55,10.06 60.38,30.19 83.87,50.32 23.48,23.48 43.61,50.32 57.03,87.22 13.42,-36.9 33.55,-63.74 57.03,-87.22 23.48,-23.48 53.67,-40.26 83.87,-50.32 33.55,-10.06 67.09,-16.77 100.64,-16.77 53.67,0 103.99,10.06 144.25,33.55 43.61,23.48 73.8,57.03 100.64,97.28 23.48,43.61 36.9,93.93 36.9,154.31l0 476.36 -77.17 -0.01 0 -483.07c0,-40.26 -6.71,-73.8 -23.48,-103.99 -16.77,-30.19 -40.26,-57.03 -70.45,-77.16 -30.19,-20.13 -67.09,-26.84 -107.35,-26.84 -40.26,0 -77.16,10.06 -107.35,26.84 -30.19,16.77 -53.67,43.61 -70.45,77.16 -16.77,30.19 -26.84,67.09 -26.84,103.99l0 483.07 -77.15 0 0 -483.07c0,-40.26 -6.71,-73.8 -23.48,-103.99 -16.77,-30.19 -40.26,-57.03 -70.45,-77.16 -30.19,-20.13 -67.09,-26.84 -107.35,-26.84 -40.26,0 -77.16,10.06 -107.35,26.84 -30.19,20.13 -53.67,43.61 -70.45,77.16 -16.78,33.55 -23.48,67.09 -23.48,103.99l0 483.07 -83.86 0z"/>
     </g>
     <g>
      <path class="fil6" d="M13927.66 3589.77c-53.67,0 -100.64,-13.42 -140.89,-40.26 -40.25,-26.84 -70.45,-60.38 -90.58,-103.99 -20.13,-43.61 -30.19,-90.58 -30.19,-144.25 0,-53.67 10.06,-103.99 33.55,-147.6 23.48,-43.61 57.03,-77.16 97.28,-103.99 43.61,-23.48 93.93,-36.9 150.96,-36.9 57.03,0 103.99,13.42 147.59,36.9 43.61,23.48 73.8,57.03 93.93,100.64 23.48,43.61 33.55,90.58 33.55,144.25l0 278.43 -73.81 0 0 -120.77 -3.35 0c-10.06,20.13 -23.48,43.61 -43.61,63.74 -20.12,20.13 -43.6,36.9 -73.79,53.67 -30.2,13.42 -63.74,20.13 -100.64,20.13zm16.77 -63.73c40.26,0 73.8,-10.06 107.35,-30.19 30.19,-20.13 53.66,-46.96 73.79,-80.51 16.77,-33.55 26.84,-73.8 26.84,-114.06 0,-43.61 -6.71,-80.51 -23.48,-114.06 -16.77,-33.55 -40.26,-60.38 -70.44,-77.16 -30.19,-20.13 -67.09,-30.19 -107.35,-30.19 -43.61,0 -80.51,10.06 -110.7,30.19 -30.19,20.13 -53.67,46.96 -70.45,80.51 -16.77,33.55 -23.48,73.8 -23.48,114.06 0,40.26 6.71,77.16 23.48,110.7 16.77,33.54 40.26,60.38 70.45,80.51 23.48,20.13 60.38,30.2 103.99,30.2z"/>
      <path class="fil6" d="M14383.88 3576.35l0 -318.69c0,-50.32 10.06,-93.93 33.55,-130.83 23.48,-36.9 53.67,-63.74 90.58,-83.87 36.91,-20.13 80.51,-30.19 124.12,-30.19 46.96,0 87.22,10.06 127.48,30.19 36.9,20.13 67.09,46.96 90.58,83.87 23.48,36.9 33.55,80.51 33.55,130.83l0 318.69 -73.83 0 0 -315.34c0,-36.9 -6.71,-70.45 -23.48,-97.28 -16.77,-26.84 -36.9,-46.96 -63.74,-60.38 -26.84,-13.42 -57.03,-20.13 -87.22,-20.13 -30.19,0 -57.03,6.71 -83.87,20.13 -26.84,13.42 -46.96,33.55 -63.74,60.38 -16.78,26.83 -23.48,60.38 -23.48,97.28l0 315.34 -80.5 0z"/>
      <path class="fil6" d="M15279.56 3589.77c-53.67,0 -100.64,-13.42 -140.89,-40.26 -40.25,-26.84 -70.45,-60.38 -90.58,-103.99 -20.13,-43.61 -30.19,-90.58 -30.19,-144.25 0,-53.67 10.06,-103.99 33.55,-147.6 23.48,-43.61 57.03,-77.16 97.28,-103.99 43.61,-23.48 93.93,-36.9 150.96,-36.9 57.03,0 103.99,13.42 147.6,36.9 43.61,23.48 73.8,57.03 93.93,100.64 23.48,43.61 33.55,90.58 33.55,144.25l0 278.43 -73.8 0 0 -120.77 0 0c-10.06,20.13 -23.48,43.61 -43.61,63.74 -20.13,20.13 -43.61,36.9 -73.8,53.67 -30.2,13.42 -63.74,20.13 -104,20.13zm16.78 -63.73c40.26,0 73.8,-10.06 107.35,-30.19 30.19,-20.13 53.67,-46.96 73.8,-80.51 16.77,-33.55 26.84,-73.8 26.84,-114.06 0,-43.61 -6.71,-80.51 -23.48,-114.06 -16.77,-33.55 -40.26,-60.38 -70.45,-77.16 -30.19,-20.13 -67.09,-30.19 -107.35,-30.19 -43.61,0 -80.51,10.06 -110.7,30.19 -30.19,20.13 -53.67,46.96 -70.45,80.51 -16.77,33.55 -23.48,73.8 -23.48,114.06 0,40.26 6.71,77.16 23.48,110.7 16.77,33.54 40.26,60.38 70.45,80.51 23.47,20.13 60.38,30.2 103.99,30.2z"/>
      <path class="fil6" d="M15823.01 3794.41l0 -67.09 261.66 -0.01c33.55,0 60.38,-10.06 80.51,-30.19 20.13,-20.13 26.84,-46.96 26.84,-80.51l0 -157.67 -3.35 0c-13.42,20.13 -30.19,40.26 -50.32,60.38 -20.13,20.12 -43.61,33.55 -70.45,46.96 -26.84,13.41 -60.38,16.77 -93.93,16.77 -53.67,0 -100.64,-13.42 -137.54,-36.9 -36.9,-23.48 -70.45,-57.03 -90.58,-100.64 -23.48,-43.61 -33.55,-90.58 -33.55,-147.6 0,-53.67 10.06,-100.64 33.55,-144.25 23.49,-43.61 53.67,-77.16 93.93,-100.64 40.26,-23.48 90.58,-36.9 147.6,-36.9 53.67,0 103.99,13.42 144.25,36.9 40.26,23.48 73.8,57.03 97.28,100.64 23.48,43.61 36.9,90.58 36.9,147.6l0 325.4c0,50.32 -13.42,93.93 -43.61,124.12 -30.19,30.19 -70.45,46.96 -124.12,46.96l-275.07 -3.33 0 0zm164.38 -275.08c40.26,0 73.8,-10.06 107.35,-30.19 30.19,-20.13 53.67,-43.61 73.8,-77.16 16.77,-33.55 26.84,-70.45 26.84,-110.7 0,-43.61 -6.71,-80.51 -26.84,-114.06 -20.13,-33.55 -40.26,-60.38 -70.45,-77.16 -30.19,-20.13 -67.09,-30.19 -107.35,-30.19 -40.26,0 -77.16,10.06 -107.35,30.19 -30.19,20.13 -53.67,46.96 -70.45,80.51 -16.77,33.55 -23.48,70.45 -23.48,114.06 0,40.26 6.71,77.16 23.48,107.35 16.77,33.55 40.26,57.03 67.09,77.16 30.2,20.12 63.75,30.19 107.36,30.19z"/>
      <path class="fil6" d="M16705.28 3576.35c-57.03,0 -110.7,-10.06 -157.67,-33.55 -46.97,-23.49 -83.87,-53.67 -110.7,-93.93 -26.83,-40.26 -40.26,-90.58 -40.26,-147.6 0,-53.67 10.06,-100.64 33.55,-144.25 20.13,-43.61 50.32,-77.16 90.58,-103.99 40.26,-26.84 83.87,-40.26 137.54,-40.26 53.67,0 100.64,13.42 137.54,36.9 36.9,23.48 67.09,57.03 83.87,93.93 20.13,40.26 30.19,83.87 30.19,134.19 0,6.71 0,13.42 0,23.48 0,10.06 -3.35,16.77 -3.35,23.48l-422.69 0.01c3.35,40.26 13.42,73.8 33.55,100.64 20.13,26.84 46.96,46.96 80.51,60.38 33.55,13.42 70.45,20.13 107.35,20.13l137.53 0 0 67.09 -137.54 3.35 0 0zm-224.76 -298.56l352.24 0c0,-13.42 0,-30.19 -3.35,-46.96 -3.35,-16.77 -6.71,-33.55 -16.77,-53.67 -10.06,-20.12 -16.77,-33.55 -30.19,-46.96 -13.42,-13.41 -30.19,-26.84 -50.32,-33.55 -20.13,-6.71 -43.61,-13.42 -73.8,-13.42 -26.84,0 -50.32,6.71 -73.8,16.77 -23.48,10.06 -40.26,26.84 -57.03,46.96 -16.77,20.12 -26.84,40.26 -33.55,63.74 -6.72,20.13 -13.43,43.61 -13.43,67.09z"/>
      <path class="fil6" d="M17040.75 3576.35l0 -392.49c0,-46.96 13.42,-87.22 40.26,-114.06 26.84,-26.84 67.09,-40.26 114.06,-40.26l93.92 0.01 0 67.09 -80.51 0c-30.19,0 -53.67,10.06 -70.45,26.84 -16.77,16.77 -23.48,40.26 -23.48,73.8l0 382.43 -73.8 -3.36 0 0z"/>
     </g>
    </g>
   </g>
  </g>
 </g>
</svg>
