<?xml version="1.0" encoding="UTF-8"?>
<!DOCTYPE svg PUBLIC "-//W3C//DTD SVG 1.1//EN" "http://www.w3.org/Graphics/SVG/1.1/DTD/svg11.dtd">
<!-- Creator: CorelDRAW 2020 (64-Bit Evaluation Version) -->
<svg xmlns="http://www.w3.org/2000/svg" xml:space="preserve" width="43.1308mm" height="43.1316mm" version="1.1" style="shape-rendering:geometricPrecision; text-rendering:geometricPrecision; image-rendering:optimizeQuality; fill-rule:evenodd; clip-rule:evenodd"
viewBox="0 0 4313.08 4313.16"
 xmlns:xlink="http://www.w3.org/1999/xlink"
 xmlns:xodm="http://www.corel.com/coreldraw/odm/2003">
 <defs>
  <style type="text/css">
   <![CDATA[
    .fil0 {fill:#FEFEFE}
    .fil1 {fill:white}
    .fil3 {fill:#FEFEFE;fill-rule:nonzero}
    .fil2 {fill:#393185;fill-rule:nonzero}
    .fil4 {fill:white;fill-rule:nonzero}
   ]]>
  </style>
 </defs>
 <g id="Layer_x0020_1">
  <metadata id="CorelCorpID_0Corel-Layer"/>
  <g id="_1763950506112">
   <path class="fil0" d="M3643.28 1293.33c53.67,97.28 157.67,154.31 265.02,150.96l0 0c13.42,33.55 26.84,67.09 36.9,100.64 335.46,992.96 -194.57,2066.44 -1187.54,2405.26 -724.59,248.24 -1529.7,30.19 -2036.25,-546.81 -53.67,73.8 -127.48,127.48 -214.7,154.31 774.92,905.75 2136.89,1013.1 3042.64,238.18 680.99,-580.35 929.23,-1519.65 634.03,-2358.3 -10.06,-33.55 -26.84,-73.8 -40.26,-107.35l0 0c100.64,-130.83 77.16,-322.04 -53.67,-422.68 -130.83,-100.64 -322.04,-77.16 -422.68,53.67 -73.81,93.95 -83.87,224.78 -23.49,332.12l0 0z"/>
   <path class="fil0" d="M657.67 3017.61c80.51,144.25 33.55,332.11 -114.06,412.62 -147.61,80.51 -332.11,33.55 -412.62,-114.06 -60.38,-107.35 -53.67,-238.18 23.48,-335.46l0 0c-13.42,-33.55 -30.19,-70.45 -40.26,-107.35 -392.49,-1123.79 197.92,-2354.94 1325.08,-2750.79 838.65,-295.21 1774.59,-43.61 2354.94,634.03 -87.22,26.84 -161.02,77.16 -214.7,150.96 -691.05,-788.34 -1888.65,-865.5 -2676.99,-174.44 -576.98,506.54 -791.68,1308.3 -546.79,2036.24 10.06,33.55 23.48,67.09 36.9,100.64l0 0c107.35,-6.71 211.35,50.32 265.02,147.61z"/>
   <path class="fil1" d="M396.01 3017.61c83.87,0 154.31,70.45 154.31,154.31 0,83.87 -70.45,154.31 -154.31,154.31 -83.86,0 -154.31,-70.45 -154.31,-154.31l0 0c-3.36,-87.22 70.44,-154.31 154.31,-154.31z"/>
   <path class="fil1" d="M3904.94 1293.33c-83.87,0 -154.31,-70.45 -154.31,-154.31 0,-87.22 70.45,-154.31 154.31,-154.31 83.87,0 154.31,70.45 154.31,154.31l0 0c0.01,87.22 -67.09,154.31 -154.31,154.31z"/>
   <path class="fil2" d="M392.65 3527.51c-197.92,0 -358.95,-161.02 -358.95,-358.95 0,-197.92 161.02,-358.95 358.95,-358.95 197.92,0 358.95,161.02 358.95,358.95 3.35,197.93 -161.02,358.95 -358.95,358.95zm0 -493.13c-77.16,0 -137.54,60.38 -137.54,137.54 0,77.16 60.38,137.54 137.54,137.54 77.16,0 137.54,-60.38 137.54,-137.54 0,-77.16 -60.38,-137.54 -137.54,-137.54z"/>
   <path class="fil2" d="M3904.94 1497.97c-197.92,0 -358.95,-161.02 -358.95,-358.95 0,-197.93 161.02,-358.95 358.95,-358.95 197.92,0 358.95,161.02 358.95,358.95 0,197.93 -161.02,358.95 -358.95,358.95zm0 -493.13c-77.16,0 -137.54,60.38 -137.54,137.54 0,77.16 60.38,137.54 137.54,137.54 77.16,0 137.54,-60.38 137.54,-137.54 0,-77.16 -60.38,-137.54 -137.54,-137.54z"/>
   <path class="fil2" d="M3163.57 2095.09l10.06 -1090.26 -1033.21 -154.31 -1013.1 157.67 0 1133.87c0,442.8 228.12,858.78 600.48,1096.95l422.67 271.73 419.33 -271.73c372.36,-241.53 593.77,-654.15 593.77,-1096.95l0 0 0 -46.97 0 0z"/>
   <path class="fil3" d="M2230.98 1608.67l-251.58 0c-46.96,0 -87.22,-36.9 -87.22,-87.22 0,-46.96 36.9,-87.22 87.22,-87.22l251.58 0c46.96,0 87.22,36.9 87.22,87.22 0,50.32 -36.9,87.22 -87.22,87.22z"/>
   <path class="fil3" d="M2160.54 1853.56l-476.35 0c-46.96,0 -87.22,-36.9 -87.22,-87.22 0,-50.32 36.9,-87.22 87.22,-87.22l476.35 0c46.96,0 87.22,36.9 87.22,87.22 0,50.32 -40.26,87.22 -87.22,87.22z"/>
   <path class="fil3" d="M2502.71 1853.56l-77.16 0c-46.96,0 -87.22,-36.9 -87.22,-87.22 0,-50.32 36.9,-87.22 87.22,-87.22l77.16 0c46.96,0 87.22,36.9 87.22,87.22 0,50.32 -43.61,87.22 -87.22,87.22z"/>
   <path class="fil4" d="M1556.71 2142.06l-73.8 0c-46.96,0 -87.22,-36.9 -87.22,-87.22 0,-50.32 36.9,-87.22 87.22,-87.22l73.8 0c46.96,0 87.22,36.9 87.22,87.22 0,50.32 -36.9,87.22 -87.22,87.22z"/>
   <path class="fil3" d="M1788.18 2433.9l-144.25 0c-46.96,0 -87.22,-36.9 -87.22,-87.22 0,-46.96 36.9,-87.22 87.22,-87.22l144.25 0c46.96,0 87.22,36.9 87.22,87.22 -3.35,46.96 -43.61,87.22 -87.22,87.22z"/>
   <path class="fil3" d="M2234.34 2725.75l-248.24 0c-46.96,0 -87.22,-36.9 -87.22,-87.22 0,-46.96 36.9,-87.22 87.22,-87.22l248.24 0c46.96,0 87.22,36.9 87.22,87.22 0,50.32 -36.9,87.22 -87.22,87.22z"/>
   <path class="fil3" d="M2120.29 2142.06l-285.14 0c-46.96,0 -87.22,-36.9 -87.22,-87.22 0,-50.32 36.9,-87.22 87.22,-87.22l285.14 0c46.95,0 87.21,36.9 87.21,87.22 0,50.32 -40.26,87.22 -87.21,87.22z"/>
   <path class="fil3" d="M2814.69 2142.06l-281.79 0c-46.96,0 -87.22,-36.9 -87.22,-87.22 0,-50.32 36.9,-87.22 87.22,-87.22l281.79 0c46.96,0 87.22,36.9 87.22,87.22 0,50.32 -40.26,87.22 -87.22,87.22z"/>
   <path class="fil3" d="M2640.25 2433.9l-566.93 0c-46.96,0 -87.22,-36.9 -87.22,-87.22 0,-46.96 36.9,-87.22 87.22,-87.22l566.93 0c46.96,0 87.22,36.9 87.22,87.22 0,50.32 -36.9,87.22 -87.22,87.22z"/>
  </g>
 </g>
</svg>
